<svg width="20" height="20" viewBox="0 0 24 24" fill="none" xmlns="http://www.w3.org/2000/svg">
<path d="M23 13C23 18.5229 18.5229 23 13 23C7.47716 23 3 18.5229 3 13C3 7.47716 7.47716 3 13 3C18.5229 3 23 7.47716 23 13Z" stroke="black" stroke-width="1.25" stroke-linecap="round"/>
<path d="M12 13V17C12 17.5523 12.4477 18 13 18C13.5523 18 14 17.5523 14 17V13C14 12.4477 13.5523 12 13 12C12.4477 12 12 12.4477 12 13Z" fill="black" stroke="black" stroke-width="1.25" stroke-linecap="round"/>
<path d="M14 8C14 7.44772 13.5523 7 13 7C12.4477 7 12 7.44772 12 8C12 8.55229 12.4477 9 13 9C13.5523 9 14 8.55229 14 8Z" fill="black" stroke="black" stroke-width="1.25" stroke-linecap="round"/>
</svg>
