<svg width="32" height="30" viewBox="0 0 32 30" fill="none" xmlns="http://www.w3.org/2000/svg">
<path d="M16.0013 2.48144C19.7596 -0.941337 25.5675 -0.827732 29.1883 2.85147C32.8074 6.5323 32.9322 12.3944 29.5659 16.218L15.9981 30L2.43356 16.218C-0.932773 12.3944 -0.806375 6.52256 2.81116 2.85147C6.43509 -0.822862 12.2318 -0.946206 16.0013 2.48144ZM26.9227 5.14468C24.5228 2.70703 20.6508 2.60803 18.1389 4.89638L16.0029 6.84066L13.8654 4.898C11.3454 2.60641 7.48147 2.70703 5.07512 5.14793C2.69116 7.56611 2.57116 11.4368 4.76792 13.9946L15.9997 25.4055L27.2315 13.9962C29.4299 11.4368 29.3099 7.57098 26.9227 5.14468Z" fill="#838383"/>
</svg>
