<svg width="111" height="111" viewBox="0 0 111 111" fill="none" xmlns="http://www.w3.org/2000/svg">
<path d="M55.6035 0.916504C70.1075 0.916504 84.0175 6.67821 94.2734 16.9341C104.529 27.19 110.291 41.1 110.291 55.604C110.291 70.108 104.529 84.018 94.2734 94.2739C84.0175 104.53 70.1075 110.292 55.6035 110.292C41.0995 110.292 27.1895 104.53 16.9336 94.2739C6.67772 84.018 0.916016 70.108 0.916016 55.604C0.916016 41.1 6.67772 27.19 16.9336 16.9341C27.1895 6.67821 41.0995 0.916504 55.6035 0.916504ZM48.791 66.3931L36.6426 54.2368C36.2071 53.8013 35.69 53.4558 35.121 53.2201C34.552 52.9844 33.9421 52.8631 33.3262 52.8631C32.7103 52.8631 32.1004 52.9844 31.5313 53.2201C30.9623 53.4558 30.4453 53.8013 30.0098 54.2368C29.1302 55.1164 28.6361 56.3093 28.6361 57.5532C28.6361 58.7971 29.1302 59.9901 30.0098 60.8696L45.4785 76.3384C45.9128 76.7761 46.4294 77.1235 46.9986 77.3606C47.5678 77.5976 48.1783 77.7197 48.7949 77.7197C49.4115 77.7197 50.022 77.5976 50.5912 77.3606C51.1604 77.1235 51.677 76.7761 52.1113 76.3384L84.1426 44.2993C84.5839 43.8656 84.935 43.3488 85.1756 42.7787C85.4162 42.2086 85.5416 41.5966 85.5445 40.9778C85.5473 40.359 85.4277 39.7458 85.1924 39.1735C84.9571 38.6012 84.6108 38.0812 84.1735 37.6434C83.7363 37.2056 83.2166 36.8587 82.6446 36.6227C82.0726 36.3868 81.4595 36.2664 80.8407 36.2685C80.222 36.2707 79.6097 36.3953 79.0394 36.6353C78.469 36.8752 77.9518 37.2257 77.5176 37.6665L48.791 66.3931Z" fill="black"/>
</svg>
